<svg xmlns="http://www.w3.org/2000/svg" viewBox="0 0 512 512">
  <defs>
    <linearGradient id="g" x1="0" y1="0" x2="1" y2="1">
      <stop offset="0%" stop-color="#11d18c"/>
      <stop offset="100%" stop-color="#3cbcff"/>
    </linearGradient>
  </defs>
  <rect width="512" height="512" rx="120" fill="#08111f"/>
  <circle cx="256" cy="180" r="88" fill="url(#g)" opacity="0.16"/>
  <path d="M256 92c-62 0-116 31-146 80v91c0 102 67 141 146 173 79-32 146-71 146-173v-91c-30-49-84-80-146-80Z" fill="url(#g)" opacity="0.95"/>
  <path d="M256 152c-38 0-68 30-68 68v28h-18c-11 0-20 9-20 20v74c0 11 9 20 20 20h172c11 0 20-9 20-20v-74c0-11-9-20-20-20h-18v-28c0-38-30-68-68-68Zm-40 96v-28c0-22 18-40 40-40s40 18 40 40v28h-80Zm40 36c14 0 26 12 26 26 0 10-6 19-14 23v25h-24v-25c-8-4-14-13-14-23 0-14 12-26 26-26Z" fill="#08111f"/>
  <text x="256" y="445" text-anchor="middle" font-size="54" font-family="Arial, sans-serif" font-weight="700" fill="#eef5ff">SecureAI</text>
</svg>